Patient4_TMGait_0pt3_03_left_02_EMG.mot
version=1
nRows=37
nColumns=33
inDegrees=no
endheader
time	1LAddLong	2LGlutMax	3LGlutMed	4LIliopsoas	5LSemiMemb	6LBicFemLong	7LRecFem	8LVastMed	9LVastLat	10LGasMed	11LTibAnt	12lTibPost	13LPeroneusLong	14LSol	15LExtDigLong	16LFlexDigLong	17RAddLong	18RGlutMax	19RGlutMed	20RIliopsoas	21RSemiMemb	22RBicFemLong	23RRecFem	24RVastMed	25RVastLat	26RGasMed	27RTibAnt	28RTibPost	29RPeroneusLong	30RSol	31RExtDigLong	32RFlexDigLong
2.67	-0.00412	0.20615	-0.027924	-0.0177	0.005798	-0.032043	0.026703	0.010986	0.034943	-0.019379	0.06073	0.00412	0.083771	-0.024872	0.063934	-0.002594	0.010834	0.11795	0.54016	-0.070953	-0.24399	-0.015869	-0.40436	-0.047302	-0.06958	0.047455	0.050812	-0.008087	0.47104	-0.54627	-0.000305	-0.007172
2.671	-0.010681	0.20355	-0.022278	-0.0177	0.016632	-0.008698	0.033875	0.011139	0.025177	-0.015106	-0.16022	-0.00412	0.051422	-0.034485	0.030365	0.011444	-0.014343	0.044556	0.60394	0.029602	-0.094147	-0.067291	-0.25116	0.061798	0.17868	0.042572	0.024261	-0.00351	0.67551	-0.55283	-0.000916	-0.001373
2.672	0.002289	0.19104	-0.032196	-0.005951	0.01297	-0.000916	0.025635	0.011749	0.018158	0.028229	-0.17425	0.000153	-0.079193	-0.03952	0.29739	-0.000916	-0.032043	0.019226	0.1442	0.15457	-0.094452	-0.10529	-0.16083	-0.060425	0.43289	0.040588	-0.040436	-0.002594	0.80368	-0.44861	-0.00061	-0.001831
2.673	0.003357	0.19211	-0.014801	0.001831	0.009003	0.016937	0.021362	0.0177	0.015411	0.035553	-0.13748	-0.000458	-0.097809	-0.012665	-0.041962	0.011749	-0.049133	-0.02182	-0.015717	0.11734	-0.046539	-0.058899	-0.068054	-0.13931	0.3569	0.041962	-0.058899	-0.000153	-0.56885	-0.39352	-0.001678	0.003204
2.674	-0.000458	0.21606	0.014954	-0.00061	0.006714	0.015411	0.032959	0.010834	0.010986	0.014496	-0.1445	0.000153	-0.037079	-0.067444	0.076599	0.018921	-0.1001	-0.083466	0.026398	0.023041	-0.025024	0.21423	-0.084381	-0.11292	0.33524	0.040131	-0.13168	0.003967	-1.5125	-0.41611	-0.001068	0.01297
2.675	0.00412	0.23727	-0.00061	0.008698	0.002594	0.009308	0.017242	0.010071	0.013275	0.016022	0.008392	0.003662	-0.020752	-0.074921	0.15762	-0.00412	-0.07782	-0.084686	0.10574	0.067749	-0.20081	0.40314	-0.20218	0.15091	0.38544	0.032043	-0.03067	-0.001678	-0.81421	-0.35156	-0.002747	0.007172
2.676	0.010834	0.25986	-0.027466	-0.001068	0.007629	-0.016937	0.042267	0.014648	0.015106	0.024719	0.13107	-0.002441	-0.061798	-0.099792	0.32745	-0.016632	-0.066528	-0.11047	-0.064697	0.10574	-0.096588	0.14404	-0.11002	0.34409	0.35111	0.03067	0.090027	0.001831	0.90591	-0.19333	-0.003357	0.001678
2.677	0.003204	0.21927	-0.033722	-0.012054	0.001984	0.005646	0.028381	0.010529	0.02533	0.03479	0.22079	0.001373	-0.059204	-0.1004	0.20264	-0.004272	-0.023804	-0.12497	-0.19684	0.06073	0.30014	0.077057	0.000458	0.30289	0.2655	0.009613	0.33829	-0.001068	-0.003052	0.01236	-0.001678	0.001831
2.678	-0.002899	0.24719	0.005493	-0.006714	0.00824	-0.009918	0.038757	0.009766	0.038147	0.013123	0.066223	-0.000763	-0.003662	-0.045471	-0.21637	-0.006256	0.019836	-0.10513	-0.28915	-0.049286	0.25528	-0.11963	-0.042419	0.4541	0.23086	0.015106	0.048218	-0.00351	-0.41733	-0.14557	-0.005341	-0.002136
2.679	0.006256	0.26337	0.018311	0.00473	0.010681	-0.024109	0.066681	0.004578	0.036469	-0.011292	-0.08255	0.006104	0.049133	-0.090637	0.27878	-0.009918	-0.060577	-0.017853	-0.036774	-0.10437	0.21316	-0.059204	-0.159	0.45288	0.1944	0.024414	-0.36057	0.005951	0.50171	-0.032349	-0.003967	0.010529
2.68	0.00473	0.27084	-0.013275	0.020599	0.010376	-0.016632	0.071411	0.007782	0.043335	0.003052	-0.006866	-0.004425	0.070801	-0.12451	-0.83435	-0.005035	-0.10025	-0.000458	0.5043	-0.084076	-0.24902	0.27329	-0.16739	0.38132	-0.037079	0.016937	-0.34866	0.002136	-0.075226	-0.02533	-0.009003	0.009766
2.681	-0.002289	0.19363	0.001526	0.031586	0.021667	-0.007019	0.078735	0.004883	0.018463	0.013275	-0.19898	0.006561	0.070648	-0.073242	-0.11932	0.012512	-0.13077	-0.088348	0.56854	0.02243	-0.59891	0.49072	-0.046997	0.13336	-0.42374	-0.006409	-0.00946	-0.000916	-0.95596	0.2655	-0.005493	0.00946
2.682	-0.004425	0.18295	-0.048676	0.023804	-0.003815	0.038605	0.085754	0.000916	0.023651	0.006714	-0.017853	-0.002289	-0.008087	-0.022583	-0.12466	0.029602	-0.14893	-0.16907	0.43396	0.1236	0.34851	0.49225	0.037689	-0.065765	0.12207	-0.022278	0.1474	-0.00412	-0.74005	0.27634	-0.00824	0.00946
2.683	0.003815	0.18402	-0.037842	-0.006409	-0.00473	0.040894	0.10727	-0.004883	0.023956	-0.001678	-0.014038	0.011902	-0.020142	0.044708	0.042877	0.016174	-0.12833	-0.18662	0.6189	0.06134	0.61523	0.48645	0.075989	0.046234	0.54794	-0.019531	0.037994	-0.007324	0.10544	0.014038	-0.001221	0.002594
2.684	0.001221	0.12253	-0.045471	0.005493	0.003967	0.045166	0.070953	-0.001068	0.035858	0.010529	-0.047607	0.00473	-0.037842	0.023804	0.7254	0.022583	-0.051422	-0.26993	1.2503	-0.064392	0.22492	0.22492	0.20355	0.1503	0.47119	-0.033112	-0.033875	-0.005035	0.51712	0.026245	-0.007172	0.006256
2.685	0.014191	0.11124	-0.061646	-0.016327	0.001984	0.033722	0.028534	-0.002899	0.031433	0.007629	0.001068	0.006256	-0.040131	0.05661	-0.03479	0.030212	0.022278	-0.26581	0.55695	-0.021667	0.016785	-0.05188	0.37247	0.15823	0.11719	-0.005798	-0.017853	-0.010681	0.27527	0.27908	-0.002136	0.004578
2.686	0.005035	0.099487	0.005188	-0.011139	0.007477	0.026398	-0.052338	-0.002594	0.022888	-0.007629	0.12619	0.010376	0.011292	0.15976	-0.085297	0.012512	0.060883	-0.24078	-0.26642	0.003052	0.081635	-0.15945	0.37872	0.53116	-0.32745	-0.021515	0.056458	-0.023346	0.028992	0.22659	-0.003662	0.007019
2.687	-0.036926	0.13489	0.018311	-0.017548	0.005341	0.019989	-0.009003	-0.00061	0.016785	-0.001068	0.22171	0.010681	-0.012817	0.14801	0.18997	0.009308	0.050659	-0.24735	-0.168	-0.09613	0.20187	-0.084991	0.2243	0.43243	-0.57053	-0.003204	0.064697	-0.027924	-0.50964	0.01709	-0.002747	0.003662
2.688	0.012054	0.11597	0.014343	-0.009613	0.007935	0.017242	-0.00061	-0.002747	0.025024	0.027771	0.22675	0.016937	-0.10788	0.050964	-0.032654	0.015259	0.041962	-0.2977	-0.5304	-0.040436	0.007019	-0.085907	-0.14099	-0.061493	-0.43198	-0.009766	0.015564	-0.013885	-0.22995	-0.18433	-0.003357	-0.009766
2.689	0.014191	0.081787	-0.010376	-0.006714	0.016174	-0.019836	-0.033722	0.000763	0.030212	0.050201	0.041809	0.007629	-0.080109	-0.023804	-0.19287	0.012665	0.056152	-0.26245	-0.70923	-0.045166	0.017853	-0.099487	-0.51666	-0.34546	-0.29388	-0.021667	0.018463	0.05661	-0.14358	-0.065308	-0.003357	-0.007477
2.69	0.001373	0.10666	-0.025787	-0.00946	0.012665	-0.026093	-0.010071	-0.001831	0.05188	0.030823	-0.098877	0.015717	-0.027008	-0.014343	-0.24033	0.015869	0.01297	-0.20432	-0.65765	-0.00885	0.025024	-0.21088	-0.45654	-0.54474	-0.12543	-0.02243	-0.003967	-0.008087	0.90958	0.15625	-0.003662	-0.011597
2.691	-0.005951	0.06134	-0.025787	0.018921	0.016022	-0.041809	-0.002747	-0.005188	0.04715	0.017242	-0.024414	0.018158	0.034332	-0.013733	-0.2475	0.013428	0.001068	-0.29785	-0.55924	-0.013428	-0.09079	-0.28946	-0.48111	-0.87875	-0.13306	0.019531	-0.047913	0.02182	0.46616	0.19363	-0.003662	-0.000763
2.692	-0.000763	0.084686	-0.026245	0.051117	0.020447	-0.045776	-0.000458	-0.002747	0.048523	-0.011902	-0.027466	0.018463	0.04715	0.037384	-0.11246	0.010223	0.001831	-0.32272	-0.40543	0.16998	-0.14511	-0.24567	-0.51239	-0.61981	0.036774	0.038452	0.00061	0.03067	0.054321	0.18951	-0.002136	-0.007324
2.693	-0.001678	0.09201	-0.028076	0.010376	0.014038	-0.041199	-0.005493	0.005493	0.042877	-0.011902	0.018921	0.020599	0.027771	-0.058594	-0.024109	0.019836	-0.0177	-0.32593	-0.6633	0.24292	-0.12665	-0.016327	-0.36057	-0.26718	0.047455	-0.005493	0.004425	-0.000305	0.082703	0.35584	0.009918	-0.009613
2.694	0.007782	0.047913	0.023956	-0.007629	0.028992	-0.029907	0.010071	0	0.046387	0.007935	-0.02533	0.033569	-0.012207	-0.089722	0.048065	0.014038	-0.001526	-0.37567	0.5481	0.030823	-0.13733	-0.028839	0.002747	-0.25452	-0.18356	-0.041046	0.031281	-0.10956	-0.053406	0.45319	-0.00412	-0.00885
2.695	0.008392	0.083771	0.06485	-0.003204	0.019226	-0.039825	0.063019	-0.007782	0.048523	0.018616	0.008698	0.027771	-0.042114	-0.03891	0.26657	0.017853	0.003815	-0.3775	1.1684	-0.10727	-0.095215	-0.091248	0.13473	-0.11795	-0.081635	-0.083008	0.01297	-0.20966	-0.16205	0.3656	-0.003357	-0.002441
2.696	0.010376	0.09201	0.01236	0.000916	0.025177	-0.046082	0.11765	-0.008392	0.053406	0.012817	-0.046387	0.03479	-0.043945	-0.13748	0.89859	0.018311	-0.007629	-0.2623	0.45654	-0.073547	-0.058289	-0.09079	-0.028381	-0.016174	0.000305	-0.030975	-0.026398	0.28992	-0.19272	0.098724	-0.006256	-0.011292
2.697	0.014038	0.066986	-0.039215	0.006866	0.023804	-0.022278	0.094147	-0.010223	0.036316	0.005341	-0.10864	0.03479	-0.010834	-0.18509	0.1648	0.012665	0.005798	-0.38986	-0.22293	0.047455	-0.21271	-0.17242	-0.14175	0.075684	0	-0.055237	0.050964	0.085754	-0.14648	-0.063171	-0.005035	-0.010071
2.698	0.010986	0.076141	-0.058746	0.00473	0.012207	-0.00946	0.05127	-0.014191	0.049591	-0.015564	-0.10773	0.029755	0.005493	-0.13641	-0.24078	0.011292	0.076141	-0.35294	0.10223	0.028534	-0.40527	-0.13229	-0.12238	0.64911	-0.015411	-0.13519	0.1265	0.019073	-0.14694	-0.074921	-0.002289	-0.013733
2.699	0.001373	0.074158	-0.046844	-0.006561	0.015411	0.001678	0.043182	-0.028076	0.049896	0.001526	-0.10452	0.026398	0.03067	-0.076599	-0.051422	0.004578	0.10407	-0.29144	0.18784	-0.042572	-0.43793	0.002594	-0.14114	1.2396	-0.024719	-0.11185	0.071259	-0.002594	0.082092	-0.068817	-0.003204	-0.007935
2.7	0.001068	0.10086	-0.030365	-0.007782	0.0177	0.001526	0.063782	-0.029297	0.044861	0.012207	-0.058899	0.030975	0.028534	-0.028839	-0.16998	0.00473	0.093231	-0.29724	0.74539	-0.10223	-0.56122	-0.10254	-0.038757	0.76569	-0.000458	0.008545	0.031891	-0.020447	0.40329	-0.21545	-0.001068	-0.011444
2.701	0.001831	0.073853	-0.018616	-0.019379	0.010071	-0.000153	0.003815	-0.042725	0.033569	0.009003	-0.025177	0.03418	0.016937	-0.084534	-0.11047	0.006714	0.046234	-0.32806	0.38788	-0.043488	-0.13351	-0.14511	-0.098877	0.16373	0.061188	0.097198	0.04837	-0.031433	-0.18295	-0.29388	-0.004272	-0.01358
2.702	0.006104	0.088196	-0.009918	-0.012054	0.016022	0.010071	-0.032959	-0.033264	0.01297	0.007935	-0.046844	0.036011	0.028076	-0.069122	-0.2066	0.005493	-0.005646	-0.3183	-0.046844	-0.03067	0.08316	-0.00885	-0.11795	-0.4863	0.17944	0.10071	0.040588	-0.039215	-0.36514	-0.41657	-0.001068	-0.010986
2.703	-0.001221	0.10559	-0.002136	-0.005798	0.011902	-0.009918	-0.103	-0.0354	0.023499	0.014038	-0.036926	0.036621	0.022888	-0.06424	-0.12482	0.007019	-0.065155	-0.2977	0.13199	-0.006561	0.46143	0.074005	-0.12909	-0.83435	0.19562	0.070801	0.035095	-0.04837	-0.2562	-0.38589	-0.005951	-0.018463
2.704	0.001984	0.10651	-0.017853	-0.021667	0.007782	-0.007935	-0.17288	-0.031433	0.013123	0.021973	0.13473	0.0354	-0.016632	-0.065918	0.045013	0.002747	-0.042267	-0.23346	0.47806	0.027771	0.53741	0.007324	-0.010986	-0.90576	0.21072	0.045319	0.089569	0.047302	0.097504	-0.4155	-0.002747	-0.021973
2.705	0.028534	0.10117	-0.036316	0.002594	0.012817	-0.020294	-0.17075	-0.03418	0.028534	0.010681	0.21011	0.0354	-0.024414	-0.039978	0.24689	0.00351	-0.023651	-0.29037	0.38696	0.068665	0.22247	-0.14313	0.097504	-0.45288	0.17212	0.045166	0.071869	0.008392	0.60043	-0.43167	-0.00412	-0.011444
2.706	0.001526	0.07309	0.014038	0.019073	0.011292	-0.016479	-0.13672	-0.034637	0.019073	0.017548	0.072479	0.035248	-0.031891	-0.062408	0.22766	-0.000458	-0.004578	-0.32089	0.38086	0.037079	0.11398	0.078278	0.18753	-0.27557	0.058441	0.023041	-0.07782	-0.013275	1.1195	-0.20477	-0.007782	-0.012207
